<?xml version="1.0" encoding="utf-8"?>
<!-- Generator: Adobe Illustrator 23.0.0, SVG Export Plug-In . SVG Version: 6.00 Build 0)  -->
<svg version="1.1" id="Calque_1" xmlns="http://www.w3.org/2000/svg" xmlns:xlink="http://www.w3.org/1999/xlink" x="0px" y="0px"
	 viewBox="0 0 1920 1080" style="enable-background:new 0 0 1920 1080;" xml:space="preserve">
<style type="text/css">
	.st0{fill:#0E65E5;stroke:#231F20;stroke-miterlimit:10;}
	.st1{fill:#0E65E5;stroke:#FFFFFF;stroke-miterlimit:10;}
	.st2{fill:none;stroke:#000000;stroke-width:5;stroke-miterlimit:10;}
	.st3{fill:#0E65E5;}
	.st4{fill:none;stroke:#000000;stroke-miterlimit:10;}
	.st5{fill:none;stroke:#0E65E5;stroke-miterlimit:10;}
</style>
<path class="st0" d="M860.5,477.5c-38.62,4.49-53.6,104.34-55,104c-1.6-0.39,7.04-133.64,65-149c13.34-3.54,36.08-2.62,44,11
	c7.58,13.02-0.06,34.8-13,41C887.61,491.16,876.49,475.64,860.5,477.5z"/>
<path class="st0" d="M1218.5,436.5c-3.6-0.9-22.44,56.16-18,58c2.84,1.17,8.15-23.11,30-38c28.16-19.18,61.34-7.47,62-12
	c0.81-5.58-49.6-23.44-64-7c-3.59,4.1-5.99,11.52-8,11C1218.1,447.88,1220.05,436.89,1218.5,436.5z"/>
<path class="st1" d="M1137.89,461.89c1.14-1.16,4.68,0.69,6.61,1.61c15.19,7.21,32.2,4.45,35,4c2.73-0.44,19.98-3.48,22.22-13.07
	c0.47-2.03,0.13-3.7,0-4.26c-2.47-10.54-23-18.21-40.81-17.05c-13.42,0.87-34.27,7.4-38.72,22.38c-1.13,3.79-2.21,11.53,1.31,19
	c0,0,2.05,4.36,6,8c15.17,13.98,65.16,7.7,65,5c-0.14-2.4-39.63,3.38-52.43-14.95C1140.95,470.94,1136.18,463.63,1137.89,461.89z"/>
<path d="M1168.89,317.89c1.14-1.16,4.68,0.69,6.61,1.61c15.19,7.21,32.2,4.45,35,4c2.73-0.44,19.98-3.48,22.22-13.07
	c0.47-2.03,0.13-3.7,0-4.26c-2.47-10.54-23-18.21-40.81-17.05c-13.42,0.87-34.27,7.4-38.72,22.38c-1.13,3.79-2.21,11.53,1.31,19
	c0,0,2.05,4.36,6,8c15.17,13.98,65.16,7.7,65,5c-0.14-2.4-39.63,3.38-52.43-14.95C1171.95,326.94,1167.18,319.63,1168.89,317.89z"/>
<path d="M1199,249c19.99,6.2,34.86,10.82,43,24c13.45,21.78-7.07,41.66,5.5,59.5c13.69,19.41,55.54,20.78,68,5
	c2.75-3.49,5.31-9.51,6-16c0.28-2.63,1.29-12.09-4-20c-7.95-11.87-25.86-13.87-38-11c-12.57,2.97-16.07,11.07-21,9
	c-8.53-3.59,2.15-27.3-9.5-43.5c-7.84-10.91-21.81-12.85-47-16c-34.02-4.25-62.03-0.46-62,1C1140.03,242.41,1165.88,238.72,1199,249
	z"/>
<path class="st0" d="M967.96,320.09c-3.66-0.62-25.06,54.87-35.38,112.53c-4.79,26.77-9.5,66.88-6.48,66.95
	C932.49,499.72,974.46,321.18,967.96,320.09z"/>
<path class="st0" d="M948.37,458.39c-2.37,5.81-8.32,20.41-1.73,32.18c8.06,14.4,31.21,17.99,48.46,9.25
	c18.22-9.23,23.15-28.8,24.09-32.52c4.22-16.76,0.83-40.43-14.72-45.66c-12.78-4.3-27.69,5.89-34.05,10.25
	C966.62,434.49,954.69,442.87,948.37,458.39z"/>
<path class="st0" d="M1047.5,436.5c-3.6-0.9-22.44,56.16-18,58c2.84,1.17,8.15-23.11,30-38c28.16-19.18,61.34-7.47,62-12
	c0.81-5.58-49.6-23.44-64-7c-3.59,4.1-5.99,11.52-8,11C1047.1,447.88,1049.05,436.89,1047.5,436.5z"/>
<g id="XMLID_1_">
	<g>
		<path d="M1129.5,251.5c61.65,12.44,101.36,27.69,101,29c-0.24,0.87-35.76-18.44-68-5c-16.47,6.86-17.68,15.21-38,22
			c-14.24,4.76-25.68,4.5-47,4c-18.55-0.43-32.3-2.79-51-6c-15.92-2.73-19.28-4.56-31-7c-32.78-6.83-59.77-5.55-70.01-5
			c-33.45,1.8-58.11,9.56-75,15c-35.69,11.49-60.48,25.89-76,35c-49.91,29.31-82.48,62.32-98.33,79.89
			c-0.29,0.32-5.2,5.82-9.66,11.11c-15.22,18.04-27.84,36.34-38.45,54.37c-0.65,1.11-1.92,3.53-2.55,4.63l-17-23l0.06-0.35
			c1.03-1.74,2.08-3.48,3.15-5.23c13.52-22.14,30.03-45.11,50.61-67.42c8.27-8.96,46.18-49.22,106.86-85.57
			c20.95-12.55,52.69-31.28,98.32-44.43c28.43-8.19,51.55-11.17,74-14c21.35-2.69,51.63-6.38,91-5
			C1071.17,239.86,1099.42,245.43,1129.5,251.5z"/>
		<path d="M598.5,538.5l0.21,0.09c-28.34,69.31-33.91,123.23-59.41,122.91c-0.55-0.01-1.16-0.04-1.85-0.16
			c-26.87-4.94-42.47-46.01-48.28-61.36c-16.71-44.16-49.79-131.53-76.66-133.48c-41.22-2.99-83.56,193.98-96,191
			c4.52-15.92,9.7-40.26,9-70c-0.15-6.24-0.54-12.25-1.14-18.04c14.56-66.47,47.25-166.44,87.14-165.96
			c24.03,0.29,44.76,36.95,47,41c4.56,8.26,5.86,13.99,28.78,68c1.52,4.2,8.37,23.03,17.19,41.4c8.82,18.37,19.61,36.28,29.03,38.6
			c15.15,3.74,24.87-31.25,48.03-80.95L598.5,538.5z"/>
		<path d="M313.94,641.7c0.91,5.16,1.77,10.42,2.56,15.8C314.4,657,313.67,650.93,313.94,641.7z"/>
		<path d="M325.5,587.5c0.7,29.74-4.48,54.08-9,70c-0.79-5.38-1.65-10.64-2.56-15.8c0.39-13.45,2.94-33.64,6.56-53.2
			c1.09-5.91,2.38-12.3,3.86-19.04C324.96,575.25,325.35,581.26,325.5,587.5z"/>
		<path d="M202.5,261.5c36.04-56.98,113.6-56.16,120-56c-8.05,3.46-68.43,30.3-77,79c-2.08,11.79-2.06,30.25,1,48
			c2,11.6,5.36,21.89,12,42c6.92,20.96,12.88,36.51,13.89,39.13c20.06,52.05,24.19,55.65,33.11,80.87
			c7.09,20.07,15.73,44.51,18.85,74.96c-1.48,6.74-2.77,13.13-3.86,19.04c-3.62,19.56-6.17,39.75-6.56,53.2
			c-14-79.1-41.32-133.15-65.44-169.2c-24.09-36.01-52.05-64.66-60-117C185.75,337.37,179.7,297.54,202.5,261.5z"/>
	</g>
	<g>
		<path class="st2" d="M313.94,641.7c-14-79.1-41.32-133.15-65.44-169.2c-24.09-36.01-52.05-64.66-60-117
			c-2.75-18.13-8.79-57.96,14-94c36.04-56.98,113.6-56.16,120-56c-8.05,3.46-68.43,30.3-77,79c-2.08,11.79-2.06,30.25,1,48
			c2,11.6,5.36,21.89,12,42c6.92,20.96,12.88,36.51,13.89,39.13c20.06,52.05,24.19,55.65,33.11,80.87
			c7.09,20.07,15.73,44.51,18.85,74.96"/>
		<path class="st2" d="M611.71,454.92c13.52-22.14,30.03-45.11,50.61-67.42c8.27-8.96,46.18-49.22,106.86-85.57
			c20.95-12.55,52.69-31.28,98.32-44.43c28.43-8.19,51.55-11.17,74-14c21.35-2.69,51.63-6.38,91-5c38.67,1.36,66.92,6.93,96.99,13
			c61.65,12.44,101.36,27.69,101,29c-0.24,0.87-35.76-18.44-68-5c-16.47,6.86-17.68,15.21-38,22c-14.24,4.76-25.68,4.5-47,4
			c-18.55-0.43-32.3-2.79-51-6c-15.92-2.73-19.28-4.56-31-7c-32.78-6.83-59.77-5.55-70.01-5c-33.45,1.8-58.11,9.56-75,15
			c-35.69,11.49-60.48,25.89-76,35c-49.91,29.31-82.48,62.32-98.33,79.89c-0.29,0.32-5.2,5.82-9.66,11.11
			c-15.22,18.04-27.84,36.34-38.45,54.37"/>
		<path class="st2" d="M608.56,460.15c1.03-1.74,2.08-3.48,3.15-5.23"/>
		<path class="st2" d="M598.92,538.07c-0.07,0.17-0.14,0.35-0.21,0.52c-28.34,69.31-33.91,123.23-59.41,122.91
			c-0.55-0.01-1.16-0.04-1.85-0.16c-26.87-4.94-42.47-46.01-48.28-61.36c-16.71-44.16-49.79-131.53-76.66-133.48
			c-41.22-2.99-83.56,193.98-96,191c-2.1-0.5-2.83-6.57-2.56-15.8c0.39-13.45,2.94-33.64,6.56-53.2c1.09-5.91,2.38-12.3,3.86-19.04
			c14.56-66.47,47.25-166.44,87.14-165.96c24.03,0.29,44.76,36.95,47,41c4.56,8.26,5.86,13.99,28.78,68
			c1.52,4.2,8.37,23.03,17.19,41.4c8.82,18.37,19.61,36.28,29.03,38.6c15.15,3.74,24.87-31.25,48.03-80.95
			c0.04-0.08,0.08-0.17,0.12-0.25"/>
		<path class="st2" d="M628.05,478.87c-0.65,1.11-1.92,3.53-2.55,4.63"/>
		<polyline class="st2" points="581.5,511.5 581.53,511.55 598.5,538.5 		"/>
		<line class="st2" x1="608.5" y1="460.5" x2="625.5" y2="483.5"/>
	</g>
</g>
<g id="XMLID_2_">
	<g>
		<path class="st3" d="M767.15,719.23c6.23,1.37,13.32,0.64,13.35,1.26c0.04,0.73-9.6,2.23-16.59,2.46
			c-9.89,0.33-25.93-1.49-46.27-14.52c-14.46-8.48-23.32-18.1-29.55-24.99c-17.25-19.06-25.5-37.71-28.81-44.3
			c-29.92-59.69-44.15-89.93-47.63-95.62c-30.59-49.95-81.25-129.72-169.46-164.67c-10.61-4.19-24.25-9.47-38.65-12.3
			c39.92-9.3,86.97-2.26,123.37,19.58c16.32,9.8,28.15,23.6,52.06,50.75c39.41,44.75,62.28,83.29,70.85,98.99
			c7.17,13.15,2.37,5.78,21.77,45.22c22.48,45.72,50.5,90.59,68.02,113.25C744.66,700.88,752.43,716.01,767.15,719.23z"/>
		<path d="M351.45,373.53c15.82-10.2,34.53-10.41,52.08-6.98c-18.37,4.27-35.23,12.02-48.84,23.36
			c-24.03,20.01-31.72,46.05-34.66,44.45C316.52,432.47,323.81,391.35,351.45,373.53z"/>
	</g>
	<g>
		<path class="st4" d="M403.54,366.56c39.92-9.3,86.97-2.26,123.37,19.58c16.32,9.8,28.15,23.6,52.06,50.75
			c39.41,44.75,62.28,83.29,70.85,98.99c7.17,13.15,2.37,5.78,21.77,45.22c22.48,45.72,50.5,90.59,68.02,113.25
			c5.05,6.53,12.83,21.66,27.54,24.88c6.23,1.37,13.32,0.64,13.35,1.26c0.04,0.73-9.6,2.23-16.59,2.46
			c-9.89,0.33-25.93-1.49-46.27-14.52c-14.46-8.48-23.32-18.1-29.55-24.99c-17.25-19.06-25.5-37.71-28.81-44.3
			c-29.92-59.69-44.15-89.93-47.63-95.62c-30.59-49.95-81.25-129.72-169.46-164.67C431.58,374.66,417.95,369.38,403.54,366.56z"/>
		<path class="st4" d="M403.54,366.56c-17.55-3.43-36.26-3.22-52.08,6.98c-27.64,17.82-34.93,58.93-31.42,60.83
			c2.94,1.6,10.63-24.44,34.66-44.45C368.31,378.57,385.17,370.83,403.54,366.56z"/>
	</g>
</g>
<g>
	<g id="XMLID_3_">
		<g>
			<path class="st3" d="M298.21,698.77c-38.21,2.54-75.86,7.92-75.71,9.73c0.18,2.25,58.57-10.06,138-3
				c40.9,3.63,126.93,17,179.01,17c0,0,46.08-1.72,62.99-20c1-1.08,12.29-13.21,25-31c2.34-3.63,4.18-6.77,7.83-14.73
				c3.65-7.95,9.11-20.73,18.69-43.65c10.77-25.78,16.09-36.94,24.64-54.51c2.69-5.54,6.08-11.68,10.84-19.11
				c20.91-32.67,44.64-53.55,59-66c12.93-11.22,29.41-25.35,54.29-38.78c48.91-26.41,99.17-33.32,130.85-37.68l4.86-16.54h-3.36
				v0.16c-0.52,0.01-1.04,0.02-1.56,0.03c-34.47,0.52-69.99,2.09-105.91,5.04c-46.33,3.81-69.32,7.5-94.38,21.64
				c-29.02,16.37-46.03,38.7-57.79,54.13c-18.57,24.36-28.12,46.49-40,74c-7.66,17.72-7.83,19.97-26,67
				c-23.88,61.78-27.38,67.06-32,72c-25.69,27.43-68.38,25.6-99.52,24.6c-24.84-0.79-23.38-0.65-87.11-1.52
				C351.32,697.03,328.38,696.76,298.21,698.77z"/>
			<path class="st3" d="M964.5,380.5l-2,13.97c18.87-1.88,39.91-4.17,62.88-4.99c164.49-5.89,274.79,25.29,275,24
				c0.45-2.73-148.43-32.48-335.61-32.98C964.68,380.5,964.59,380.5,964.5,380.5z"/>
		</g>
		<g>
			<polyline class="st5" points="933.5,380.5 935.14,380.5 938.5,380.5 			"/>
			<path class="st5" d="M935.14,380.66c-0.52,0.01-1.04,0.02-1.56,0.03c-34.47,0.52-69.99,2.09-105.91,5.04
				c-46.33,3.81-69.32,7.5-94.38,21.64c-29.02,16.37-46.03,38.7-57.79,54.13c-18.57,24.36-28.12,46.49-40,74
				c-7.66,17.72-7.83,19.97-26,67c-23.88,61.78-27.38,67.06-32,72c-25.69,27.43-68.38,25.6-99.52,24.6
				c-24.84-0.79-23.38-0.65-87.11-1.52c-39.55-0.55-62.49-0.82-92.66,1.19c-38.21,2.54-75.86,7.92-75.71,9.73
				c0.18,2.25,58.57-10.06,138-3c40.9,3.63,126.93,17,179.01,17c0,0,46.08-1.72,62.99-20c1-1.08,12.29-13.21,25-31
				c2.34-3.63,4.18-6.77,7.83-14.73c3.65-7.95,9.11-20.73,18.69-43.65c10.77-25.78,16.09-36.94,24.64-54.51
				c2.69-5.54,6.08-11.68,10.84-19.11c20.91-32.67,44.64-53.55,59-66c12.93-11.22,29.41-25.35,54.29-38.78
				c48.91-26.41,99.17-33.32,130.85-37.68c0.01-0.01,0.03-0.01,0.04-0.01c0.11-0.02,0.27-0.04,0.37-0.05"/>
			<path class="st5" d="M962.38,394.48c0.04,0,0.08-0.01,0.12-0.01c18.87-1.88,39.91-4.17,62.88-4.99
				c164.49-5.89,274.79,25.29,275,24c0.45-2.73-148.43-32.48-335.61-32.98c-0.09,0-0.18,0-0.27,0"/>
			<polyline class="st5" points="962.5,394.5 962.5,394.47 964.5,380.5 			"/>
			<polyline class="st5" points="933.5,397.5 933.64,397.04 938.5,380.5 			"/>
		</g>
	</g>
</g>
</svg>
